PathFileType	4	(X/Y/Z) flx_0kg_1.trc																										
DataRate	CameraRate	NumFrames	NumMarkers	Units	OrigDataRate	OrigDataStartFrame	OrigNumFrames																					
100	100	29	9	mm	100	398	794																					
Frame#	Time	gu			centelbow			EpL			centpxt8			centijc7			ij			ts			aa			ai		
		X1	Y1	Z1	X2	Y2	Z2	X3	Y3	Z3	X4	Y4	Z4	X5	Y5	Z5	X6	Y6	Z6	X7	Y7	Z7	X8	Y8	Z8	X9	Y9	Z9  
397	3.97	-101.311	59.923	99.666	1.834	266.319	187.678	-24.068	280.159	174.375	-46.816	-153.158	-8.669	-46.816	31.938	-8.669	0	0	0	-145.477	-22.557	56.872	-135.967	84.461	108.657	-118.075	-67.787	157.316
398	3.98	-101.382	60.063	99.917	3.427	265.591	187.996	-22.468	279.619	174.879	-46.816	-153.158	-8.669	-46.816	31.938	-8.669	0	0	0	-145.929	-22.331	56.709	-136.047	84.557	108.69	-118.509	-67.835	157.024
399	3.99	-101.432	60.406	100.097	5.117	265.075	188.087	-20.787	279.288	175.188	-46.816	-153.158	-8.669	-46.816	31.938	-8.669	0	0	0	-146.338	-22.04	56.529	-136.085	84.724	108.694	-118.859	-67.805	156.709
400	4	-101.462	60.788	100.191	6.908	264.592	187.965	-19.019	278.988	175.316	-46.816	-153.158	-8.669	-46.816	31.938	-8.669	0	0	0	-146.624	-21.817	56.471	-135.96	84.799	108.856	-119.04	-67.886	156.483
401	4.01	-101.598	60.998	100.399	8.656	263.909	187.893	-17.289	278.492	175.498	-46.816	-153.158	-8.669	-46.816	31.938	-8.669	0	0	0	-146.779	-21.723	56.541	-135.668	84.726	109.171	-119.056	-68.129	156.358
402	4.02	-101.796	61.015	100.731	10.354	263.005	187.948	-15.589	277.781	175.781	-46.816	-153.158	-8.669	-46.816	31.938	-8.669	0	0	0	-146.827	-21.62	56.652	-135.289	84.65	109.551	-118.969	-68.382	156.265
403	4.03	-101.772	61.156	100.831	12.229	262.226	187.774	-13.694	277.195	175.803	-46.816	-153.158	-8.669	-46.816	31.938	-8.669	0	0	0	-146.858	-21.4	56.748	-134.943	84.675	109.955	-118.905	-68.542	156.155
404	4.04	-101.459	61.605	100.558	14.363	261.745	187.24	-11.526	276.91	175.442	-46.816	-153.158	-8.669	-46.816	31.938	-8.669	0	0	0	-147.092	-21.199	56.843	-134.806	84.672	110.37	-119.072	-68.735	156.044
405	4.05	-101.207	62.016	100.414	16.507	261.105	186.967	-9.324	276.487	175.323	-46.816	-153.158	-8.669	-46.816	31.938	-8.669	0	0	0	-147.674	-21.127	56.948	-134.966	84.543	110.774	-119.568	-69.048	155.939
406	4.06	-101.322	61.929	100.963	18.471	259.739	187.596	-7.269	275.379	176.094	-46.816	-153.158	-8.669	-46.816	31.938	-8.669	0	0	0	-148.433	-21.046	57.039	-135.24	84.412	111.161	-120.179	-69.368	155.792
407	4.07	-101.711	61.408	102.072	20.384	257.737	188.86	-5.239	273.67	177.501	-46.816	-153.158	-8.669	-46.816	31.938	-8.669	0	0	0	-149.07	-20.94	57.17	-135.32	84.262	111.651	-120.642	-69.741	155.638
408	4.08	-102.001	61.036	102.992	22.537	255.813	189.804	-2.97	272.047	178.612	-46.816	-153.158	-8.669	-46.816	31.938	-8.669	0	0	0	-149.458	-20.964	57.427	-135.089	83.923	112.356	-120.92	-70.346	155.573
409	4.09	-101.899	61.202	103.229	25.105	254.444	189.901	-0.301	270.969	178.908	-46.816	-153.158	-8.669	-46.816	31.938	-8.669	0	0	0	-149.616	-21.009	57.705	-134.622	83.541	113.106	-121.056	-70.999	155.536
410	4.1	-101.429	61.637	103.029	28.047	253.306	189.536	2.736	270.121	178.763	-46.816	-153.158	-8.669	-46.816	31.938	-8.669	0	0	0	-149.628	-20.852	57.789	-134.053	83.389	113.61	-121.065	-71.393	155.336
411	4.11	-100.844	61.829	102.92	31.223	251.768	189.324	6.022	268.893	178.785	-46.816	-153.158	-8.669	-46.816	31.938	-8.669	0	0	0	-149.64	-20.59	57.638	-133.502	83.36	113.841	-121.022	-71.641	154.903
412	4.12	-100.436	61.54	103.196	34.439	249.534	189.515	9.367	266.999	179.23	-46.816	-153.158	-8.669	-46.816	31.938	-8.669	0	0	0	-149.775	-20.392	57.412	-133.038	83.239	114.026	-121.015	-71.993	154.345
413	4.13	-100.413	60.865	103.845	37.44	246.726	190.081	12.51	264.554	180.075	-46.816	-153.158	-8.669	-46.816	31.938	-8.669	0	0	0	-150.033	-20.172	57.28	-132.652	83.096	114.363	-121.048	-72.391	153.813
414	4.14	-100.596	60.221	104.672	40.224	243.857	190.882	15.441	262.049	181.174	-46.816	-153.158	-8.669	-46.816	31.938	-8.669	0	0	0	-150.306	-19.841	57.283	-132.236	83.038	114.851	-121.062	-72.71	153.384
415	4.15	-100.495	60.072	105.403	43.147	241.507	191.616	18.506	260.049	182.21	-46.816	-153.158	-8.669	-46.816	31.938	-8.669	0	0	0	-150.525	-19.496	57.288	-131.708	82.998	115.302	-121.053	-72.998	152.967
416	4.16	-99.997	60.395	105.835	46.353	239.681	191.987	21.852	258.555	182.885	-46.816	-153.158	-8.669	-46.816	31.938	-8.669	0	0	0	-150.688	-19.221	57.186	-131.098	82.899	115.603	-121.055	-73.327	152.475
417	4.17	-99.515	60.747	106.071	49.484	237.875	192.148	25.124	257.074	183.351	-46.816	-153.158	-8.669	-46.816	31.938	-8.669	0	0	0	-150.787	-18.992	57.138	-130.485	82.757	115.958	-121.075	-73.687	152.066
418	4.18	-99.396	60.835	106.419	52.168	235.738	192.567	27.962	255.263	184.065	-46.816	-153.158	-8.669	-46.816	31.938	-8.669	0	0	0	-150.885	-18.679	57.279	-129.979	82.704	116.518	-121.146	-73.948	151.865
419	4.19	-99.583	60.616	106.984	54.512	233.182	193.359	30.478	253.039	185.146	-46.816	-153.158	-8.669	-46.816	31.938	-8.669	0	0	0	-151.15	-18.146	57.467	-129.674	82.876	117.117	-121.355	-73.972	151.708
420	4.2	-99.703	60.212	107.638	57.015	230.304	194.195	33.163	250.505	186.294	-46.816	-153.158	-8.669	-46.816	31.938	-8.669	0	0	0	-151.59	-17.501	57.616	-129.436	83.149	117.647	-121.666	-73.893	151.478
421	4.21	-99.427	59.971	108.295	60.023	227.535	194.795	36.344	248.075	187.256	-46.816	-153.158	-8.669	-46.816	31.938	-8.669	0	0	0	-151.907	-16.949	57.78	-128.91	83.296	118.17	-121.802	-73.944	151.22
422	4.22	-98.906	60.217	108.86	63.305	225.3	194.998	39.775	246.16	187.88	-46.816	-153.158	-8.669	-46.816	31.938	-8.669	0	0	0	-151.924	-16.468	57.915	-128.008	83.359	118.64	-121.621	-74.073	150.916
423	4.23	-98.63	60.812	109.061	66.337	223.437	194.636	42.94	244.601	187.998	-46.816	-153.158	-8.669	-46.816	31.938	-8.669	0	0	0	-151.911	-16.11	57.955	-127.094	83.311	118.983	-121.429	-74.295	150.535
424	4.24	-98.774	61.308	108.775	68.928	221.397	193.815	45.662	242.86	187.696	-46.816	-153.158	-8.669	-46.816	31.938	-8.669	0	0	0	-152.143	-16.15	57.895	-126.473	82.872	119.218	-121.536	-74.895	150.079
425	4.25	-99.012	61.55	108.345	71.303	219.031	193.063	48.185	240.79	187.451	-46.816	-153.158	-8.669	-46.816	31.938	-8.669	0	0	0	-152.502	-16.413	57.66	-126.061	82.2	119.312	-121.798	-75.726	149.447
